<svg width="136" height="91" viewBox="0 0 136 91" fill="none" xmlns="http://www.w3.org/2000/svg">
<path d="M1 34.6624C1 44.712 6.46782 53.1083 15.6322 53.1083C22.6659 53.1083 28.4931 49.2848 31.3425 41.9736L31.8303 50.8348L41.5851 49.1556L40.2759 26.6279L18.5073 28.3071L18.3789 37.0392L26.0031 36.3158C24.8222 39.3126 22.4349 41.4569 19.4571 41.4569C16.1199 41.4569 13.9893 38.9509 13.9893 33.6807C13.9893 25.6462 18.1479 20.2726 22.6659 20.2726C25.8747 20.2726 26.8245 22.1843 26.8245 25.052L38.8383 23.6052C38.8383 14.9765 33.6015 8.75036 23.9494 8.75036C8.49579 8.7762 1 22.9077 1 34.6624ZM113.231 26.757C111.691 26.757 110.844 25.5687 110.844 22.9335C110.844 17.7925 113.334 14.0723 115.721 14.0723C117.262 14.0723 117.98 15.6224 117.98 17.5341C118.006 22.081 115.747 26.757 113.231 26.757ZM110.972 38.1242C122.755 38.1242 128.48 26.0337 128.48 15.4932C128.48 6.99361 124.321 1 116.466 1C105.274 1 99.5747 12.2639 99.5747 23.166C99.5491 32.1306 103.605 38.1242 110.972 38.1242ZM76.9333 43.162L97.5211 39.7002L97.8805 27.2479L88.7161 28.798L89.7943 5.67605L77.19 7.71698L76.9333 43.162ZM121.446 61.9695C120.137 61.9695 119.059 61.1428 119.059 58.146C119.059 54.555 120.856 50.6023 123.346 50.6023C124.783 50.6023 125.605 51.6874 125.605 53.8316C125.605 58.2494 123.833 61.9695 121.446 61.9695ZM118.468 75.016C129.301 74.8868 135 63.0287 135 51.2999C135 44.1179 131.791 39.0801 125.014 39.0801C114.669 39.0801 108.816 50.5765 108.816 61.9695C108.842 68.7898 111.203 74.9126 118.468 75.016ZM58.1425 35.8508C56.1146 35.8508 55.1648 34.4041 55.1648 31.4073C55.1648 26.6279 57.1927 21.5901 60.5299 21.5901C62.3268 21.5901 63.3793 23.2694 63.3793 25.7753C63.3793 29.9864 61.223 35.8508 58.1425 35.8508ZM56.3456 47.4763C68.4877 47.4763 73.9556 34.0682 73.9556 23.7602C73.9556 14.7698 69.8996 8.90537 60.992 8.90537C50.6468 8.90537 43.7414 19.0842 43.7414 31.0714C43.7414 40.7594 48.131 47.4763 56.3456 47.4763ZM87.5352 79.9245L107.045 76.3335L106.814 63.0288L99.549 64.9405L100.73 43.0328L87.869 45.4354L87.5352 79.9245ZM68.9755 72.0192C67.1786 72.0192 66.3571 70.7016 66.3571 68.1957C66.3571 63.5196 68.9755 58.0168 71.9533 58.0168C73.8529 58.0168 74.5716 59.3344 74.5716 61.9695C74.546 66.2839 72.287 72.0192 68.9755 72.0192ZM66.1004 84.4714C78.3709 84.4714 84.7885 71.5283 84.7885 60.3936C84.7885 51.5324 81.092 46.3913 73.7245 46.3913C61.9418 46.5205 54.9081 58.611 54.9081 69.9782C54.9081 78.607 58.6046 84.4714 66.1004 84.4714ZM27.1839 90L47.0529 86.6415L55.3958 50.4732L41.4824 52.5141L37.7858 74.6801L36.605 74.9126L33.8582 53.47L19.5854 56.1051L27.1839 90Z" fill="white"/>
</svg>
